<svg width="112" height="16" viewBox="0 0 112 16" fill="none" xmlns="http://www.w3.org/2000/svg">
<path d="M1 7C0.447715 7 0 7.44772 0 8C0 8.55228 0.447715 9 1 9L1 7ZM111.707 8.70711C112.098 8.31658 112.098 7.68342 111.707 7.29289L105.343 0.928932C104.953 0.538408 104.319 0.538408 103.929 0.928932C103.538 1.31946 103.538 1.95262 103.929 2.34315L109.586 8L103.929 13.6569C103.538 14.0474 103.538 14.6805 103.929 15.0711C104.319 15.4616 104.953 15.4616 105.343 15.0711L111.707 8.70711ZM1 9L111 9V7L1 7L1 9Z" fill="black"/>
</svg>
